<svg version="1" xmlns="http://www.w3.org/2000/svg" width="682.667" height="682.667" viewBox="0 0 512.000000 512.000000"><path d="M236.5 4c-61.1 5.2-116.4 30.7-159 73.4-20.3 20.3-35.9 42.1-48 67.1-8.9 18.2-13.3 30-17.9 47.6-5.8 22.1-7.9 39-7.9 63.9 0 41.4 7.6 74.1 25.8 111.5 12.1 25 27.7 46.8 48 67.1 20.2 20.2 41.6 35.5 67 48 25.5 12.4 47.3 19.2 75.6 23.5 20.4 3.1 51.4 3.1 71.8 0 28.3-4.3 50.1-11.1 75.6-23.5 25.4-12.5 46.8-27.8 67-48 20.3-20.3 35.9-42.1 48-67.1 8.9-18.2 13.3-30 17.9-47.6 5.8-22.1 7.9-39 7.9-63.9 0-41.4-7.6-74.1-25.8-111.5-12.1-25-27.7-46.8-48-67.1-25.5-25.6-58.2-46.6-91.6-58.8C311.4 7 269 1.2 236.5 4zm40.7 111.7c7.9 8.6 14.6 20 18.2 31 1.6 4.8 2.1 5.3 4.6 5.3 2.7 0 2.9.4 4 5.6 1.5 6.9 1.5 22.4.1 28.4-1.6 6.9-1.6 7 3.4 7 5.4 0 5.5.4 2 9.6-3.3 8.7-8.5 17.2-15.7 25.6l-5.9 6.8h4.3l4.3.1-4 3.4c-2.2 1.9-7.8 5.5-12.5 7.9-28.4 14.8-61 12.2-86.8-6.8-5.5-4.1-6.8-4.6-11.5-4.6-4.9 0-5.6-.3-9.4-4.3-8.7-9-15.5-20-19.3-31.2l-1.7-5-5.1-.3-5-.3-1.3-5.2c-1.5-6-1.8-22.6-.5-31 .8-5.7.8-5.7-1.8-5.7H135l3-8.1c3.4-9.3 9.8-20 16.5-27.7l4.7-5.2h113.5l4.5 4.7zm-10.6 184.8c25.1 2.7 48.9 8 66.5 15.1 7 2.8 10 3.4 15.8 3.4 6.4 0 8 .4 15.4 4.1 4.5 2.3 11.6 6.4 15.7 9.2 8 5.4 21.3 18.2 24.3 23.5l1.8 3.2h-160c-88.1 0-160.1-.3-160.1-.6 0-1.5 7.3-10.4 13.2-16 7.2-6.9 16.3-13.1 28.8-19.5l8.5-4.4-5-.5-5-.5 14.3-4.8c19.6-6.5 39.8-10.5 66.2-13 10.5-1.1 46.6-.5 59.6.8zM427 412v11H93v-22h334v11z"/></svg>